<svg version="1.1" id="External" xmlns="http://www.w3.org/2000/svg"  viewBox="0 0 48 48">
  <defs>
    <style>.a{fill:#fff;}</style>
  </defs>
  <title>external</title>
  <path class="a" d="M70,70H-20V-20H70ZM36.5,1H-2.6613a7.97,7.97,0,0,0-.9984.0058A5.476,5.476,0,0,0-7.9915,5.62C-8.0463,6.281-8,6.951-8,7.6171V51.581a19.4433,19.4433,0,0,0,.0105,1.9973A5.0942,5.0942,0,0,0-3.4614,57.989c.827.0685,1.6644.011,2.4971.011H42a29.7973,29.7973,0,0,0,2.9958-.02c1.2864-.1306,3.8434-2.6549,3.9825-3.94A27.9761,27.9761,0,0,0,49,51.0451q0-16.986-.0125-33.9721c-.0017-.9943-.1787-1.9883-.3009-3.26L42.88,19.62V51.7659H-1.8521V7.0368H30.4632ZM49.6713-5,18.9947,25.6765c-.3255,5.5682.6631,5.5592,5.5072,5.3216Q39.3173,16.1829,54.1733,1.3288c.1093-.1092.2556-.3.3476-.28.1368.0294.2406.2128.4791.4513,0,2.8615-.0583,5.8468.0206,8.8285.052,1.9644,1.0888,2.7518,3.187,2.6715,1.7665-.0676,2.7579-.88,2.7721-2.5863q.0774-9.2491.0039-18.4992c-.0161-2.1414-.7809-2.8846-2.9479-2.9q-8.9992-.0633-17.9993-.0013c-2.178.0139-2.9774.8319-3.0364,2.8289-.0681,2.3065.6936,3.0989,3.2209,3.1458C43.0327-4.96,45.8461-5,49.6713-5Z"/>
  <path d="M36.5,1,30.4632,7.0368H-1.8521V51.7659H42.88V19.62l5.8064-5.8063c.1222,1.2713.2992,2.2653.3009,3.26q.03,16.986.0125,33.9721a27.9761,27.9761,0,0,1-.0213,2.9953c-.1391,1.2847-2.6961,3.809-3.9825,3.94A29.7973,29.7973,0,0,1,42,58H-.9643c-.8327,0-1.67.0575-2.4971-.011a5.0942,5.0942,0,0,1-4.5281-4.4107A19.4433,19.4433,0,0,1-8,51.581V7.6171c0-.6661-.0463-1.3361.0085-1.9976A5.476,5.476,0,0,1-3.66,1.0058,7.97,7.97,0,0,1-2.6613,1Z"/>
  <path d="M49.6713-5c-3.8252,0-6.6386.04-9.45-.012C37.6936-5.0589,36.9319-5.8513,37-8.1578c.059-1.997.8584-2.815,3.0364-2.8289q8.9994-.0576,17.9993.0013c2.167.0153,2.9318.7585,2.9479,2.9q.07,9.2492-.0039,18.4992C60.9655,12.12,59.9741,12.9324,58.2076,13c-2.0982.08-3.135-.7071-3.187-2.6715C54.9417,7.3468,55,4.3615,55,1.5c-.2385-.2385-.3423-.4219-.4791-.4513-.092-.02-.2383.1709-.3476.28Q39.3264,16.1722,24.5019,30.9981c-4.8441.2376-5.8327.2466-5.5072-5.3216Z"/>
</svg>