<svg version="1.1" id="External" xmlns="http://www.w3.org/2000/svg" viewBox="0 0 69.0413 69.0467"><title>external</title><path d="M44.5229,12.0163,38.4861,18.053H6.1708V62.7822H50.9031V30.636L56.7094,24.83c.1223,1.2713.2993,2.2653.301,3.26q.0294,16.986.0125,33.9721a27.9761,27.9761,0,0,1-.0213,2.9953c-.1392,1.2847-2.6961,3.809-3.9826,3.94a29.7953,29.7953,0,0,1-2.9957.02H7.0585c-.8326,0-1.67.0575-2.497-.011A5.0943,5.0943,0,0,1,.0334,64.5946a19.4435,19.4435,0,0,1-.01-1.9973V18.6334c0-.6661-.0463-1.3361.0085-1.9977a5.476,5.476,0,0,1,4.3318-4.6136,7.97,7.97,0,0,1,.9984-.0058Z"/><path d="M57.6942,6.0163c-3.8252,0-6.6387.04-9.45-.012-2.5274-.0469-3.289-.8393-3.2209-3.1458.0589-1.997.8584-2.815,3.0364-2.829q8.9994-.0574,17.9993.0014c2.1669.0152,2.9318.7585,2.9479,2.9q.07,9.2492-.0039,18.4991c-.0143,1.7062-1.0057,2.5188-2.7721,2.5864-2.0982.08-3.135-.7071-3.187-2.6715-.0789-2.9817-.0206-5.967-.0206-8.8285-.2386-.2386-.3423-.4219-.4792-.4513-.0919-.02-.2382.1709-.3475.28Q47.3494,27.1885,32.5248,42.0144c-4.8441.2376-5.8328.2465-5.5072-5.3216C37.0767,26.6336,47.0879,16.6225,57.6942,6.0163Z"/></svg>