<svg xmlns="http://www.w3.org/2000/svg" version="1.1" id="Logo" viewBox="0 0 87.5441 95.5288">
  <title>logo</title>
  <polygon points="85.812 47.612 67.288 79.696 30.674 79.696 66.875 15.524 67.288 15.524 85.812 47.612" fill="none" stroke="#d97c2f" stroke-miterlimit="10" stroke-width="3"/>
  <polygon points="56.892 15.245 20.691 79.416 20.256 79.416 1.732 47.333 20.256 15.245 56.892 15.245" fill="#d97c2f" stroke="#d97c2f" stroke-miterlimit="10" stroke-width="3"/>
  <line x1="22.6067" y1="76.0199" x2="12.0179" y2="94.7919" fill="none" stroke="#d97c2f" stroke-miterlimit="10" stroke-width="3"/>
  <line x1="75.3675" y1="0.7455" x2="64.6168" y2="19.5173" fill="none" stroke="#d97c2f" stroke-miterlimit="10" stroke-width="3"/>
  <polygon points="32.685 22.467 32.685 52.213 14.093 52.213 14.093 46.636 15.953 46.636 15.953 50.354 30.826 50.354 30.826 24.326 21.53 24.326 21.53 22.467 32.685 22.467" fill="#0a0a0a" stroke="#0a0a0a" stroke-miterlimit="10"/>
  <rect x="54.276" y="43.9175" width="18.5913" height="1.8591" fill="#abb1bf" stroke="#abb1bf" stroke-miterlimit="10"/>
  <polygon points="72.867 56.931 72.867 58.791 56.135 58.791 56.135 73.664 54.276 73.664 54.276 56.931 72.867 56.931" fill="#abb1bf" stroke="#abb1bf" stroke-miterlimit="10"/>
</svg>